<svg width="140" height="24" viewBox="0 0 140 24" fill="none" xmlns="http://www.w3.org/2000/svg">
<path d="M6 9V19C6 19.5304 6.21071 20.0391 6.58579 20.4142C6.96086 20.7893 7.46957 21 8 21H17C17.5304 21 18.0391 20.7893 18.4142 20.4142C18.7893 20.0391 19 19.5304 19 19V14M4 5V3M8 5V3M9 5.6V7C9 7.53043 8.78929 8.03914 8.41421 8.41421C8.03914 8.78929 7.53043 9 7 9H5C4.46957 9 3.96086 8.78929 3.58579 8.41421C3.21071 8.03914 3 7.53043 3 7V5.6C3 5.44087 3.06321 5.28826 3.17574 5.17574C3.28826 5.06321 3.44087 5 3.6 5H8.4C8.55913 5 8.71174 5.06321 8.82426 5.17574C8.93679 5.28826 9 5.44087 9 5.6Z" stroke="#2B3B47" stroke-width="1.5" stroke-linecap="round"/>
<path d="M18.167 4L16.5 7H20.5L18.833 10" stroke="#2B3B47" stroke-width="1.5" stroke-linecap="round" stroke-linejoin="round"/>
<path d="M51 11V3.6C51 3.44087 50.9368 3.28826 50.8243 3.17574C50.7117 3.06321 50.5591 3 50.4 3H31.6C31.4409 3 31.2883 3.06321 31.1757 3.17574C31.0632 3.28826 31 3.44087 31 3.6V11M51 11H31M51 11L50.21 13.584C50.0849 13.9936 49.8317 14.3523 49.4875 14.6072C49.1433 14.8621 48.7263 14.9998 48.298 15H47M31 11L31.79 13.584C31.9151 13.9936 32.1683 14.3523 32.5125 14.6072C32.8567 14.8621 33.2737 14.9998 33.702 15H35M47 7H48M38.5 14.5C38.5 14.5 38.5 21.5 35 21.5M43.5 14.5C43.5 14.5 43.5 21.5 47 21.5M41 14.5V21.5" stroke="#2B3B47" stroke-width="1.5" stroke-linecap="round" stroke-linejoin="round"/>
<path d="M70.275 19C70.475 18.9833 70.646 18.904 70.788 18.762C70.93 18.62 71.0007 18.4493 71 18.25C71 18.0167 70.925 17.829 70.775 17.687C70.625 17.545 70.4333 17.4827 70.2 17.5C69.5167 17.55 68.7917 17.3623 68.025 16.937C67.2583 16.5117 66.775 15.741 66.575 14.625C66.5417 14.4417 66.4543 14.2917 66.313 14.175C66.1717 14.0583 66.009 14 65.825 14C65.5917 14 65.4 14.0877 65.25 14.263C65.1 14.4383 65.05 14.6423 65.1 14.875C65.3833 16.3917 66.05 17.475 67.1 18.125C68.15 18.775 69.2083 19.0667 70.275 19ZM70 22C67.7167 22 65.8123 21.2167 64.287 19.65C62.7617 18.0833 61.9993 16.1333 62 13.8C62 12.1333 62.6627 10.3207 63.988 8.362C65.3133 6.40333 67.3173 4.28267 70 2C72.6833 4.28333 74.6877 6.40433 76.013 8.363C77.3383 10.3217 78.0007 12.134 78 13.8C78 16.1333 77.2373 18.0833 75.712 19.65C74.1867 21.2167 72.2827 22 70 22ZM70 20C71.7333 20 73.1667 19.4123 74.3 18.237C75.4333 17.0617 76 15.5827 76 13.8C76 12.5833 75.4957 11.2083 74.487 9.675C73.4783 8.14167 71.9827 6.46667 70 4.65C68.0167 6.46667 66.521 8.14167 65.513 9.675C64.505 11.2083 64.0007 12.5833 64 13.8C64 15.5833 64.5667 17.0627 65.7 18.238C66.8333 19.4133 68.2667 20.0007 70 20Z" fill="#2B3B47"/>
<path d="M99 1.5C97.35 1.5 96 2.85 96 4.5C96.0029 5.27095 96.3055 6.01057 96.8438 6.5625C95.4548 7.32975 94.5 8.8095 94.5 10.5V14.5545L94.7108 14.7892L96 16.0778V22.5H97.5V15.4455L97.2892 15.2108L96 13.9222V10.5C96 8.83575 97.3357 7.5 99 7.5C100.664 7.5 102 8.83575 102 10.5V13.9222L100.711 15.2108L100.5 15.4455V22.5H102V16.0778L103.289 14.7892L103.5 14.5545V10.5C103.5 8.8095 102.545 7.32975 101.156 6.5625C101.695 6.01066 101.997 5.27098 102 4.5C102 2.85 100.65 1.5 99 1.5ZM99 3C99.8377 3 100.5 3.66225 100.5 4.5C100.5 5.33775 99.8377 6 99 6C98.1623 6 97.5 5.33775 97.5 4.5C97.5 3.66225 98.1623 3 99 3Z" fill="#2B3B47"/>
<path d="M128 1.5C126.35 1.5 125 2.85 125 4.5C125 5.34675 125.366 6.10875 125.938 6.65625C125.761 6.781 125.596 6.92239 125.446 7.0785C124.816 7.746 124.423 8.637 124.25 9.609H124.273L122.773 17.109L122.586 18H125.75V22.5H127.25V18H128.75V22.5H130.25V18H133.414L133.227 17.109L131.727 9.609C131.554 8.6835 131.179 7.8015 130.555 7.125C130.399 6.9523 130.226 6.7953 130.039 6.65625C130.619 6.10875 131 5.35275 131 4.5C131 2.85 129.65 1.5 128 1.5ZM128 3C128.838 3 129.5 3.66225 129.5 4.5C129.5 5.33775 128.838 6 128 6C127.162 6 126.5 5.33775 126.5 4.5C126.5 3.66225 127.162 3 128 3ZM128 7.5C128.621 7.5 129.067 7.737 129.454 8.15625C129.84 8.5755 130.144 9.1965 130.273 9.891L131.586 16.5H124.415L125.728 9.89025H125.75C125.882 9.14025 126.169 8.51025 126.547 8.10975C126.925 7.70775 127.365 7.5 128 7.5Z" fill="#2B3B47"/>
</svg>
