<svg width="49" height="48" viewBox="0 0 49 48" fill="none" xmlns="http://www.w3.org/2000/svg">
<path d="M8.16597 8.39141C8.16597 8.07315 8.2924 7.76792 8.51745 7.54288C8.74249 7.31783 9.04771 7.19141 9.36597 7.19141H10.4172C12.162 7.19141 13.1652 8.32661 13.746 9.45941C14.142 10.2346 14.4276 11.1802 14.6652 12.001H39.3732C39.744 12.0011 40.1098 12.0872 40.4418 12.2524C40.7738 12.4176 41.063 12.6575 41.2867 12.9533C41.5104 13.2491 41.6625 13.5927 41.7311 13.9571C41.7996 14.3216 41.7828 14.6969 41.682 15.0538L38.0916 27.7138C37.806 28.7182 37.2006 29.6021 36.3673 30.2314C35.534 30.8607 34.5182 31.2011 33.474 31.201H21.2844C20.2314 31.2014 19.2076 30.8555 18.3706 30.2167C17.5336 29.5779 16.9298 28.6815 16.6524 27.6658L15.1116 22.0138C15.1027 21.9885 15.0947 21.9629 15.0876 21.937L12.6132 13.5442L12.3732 12.7354C12.1332 11.905 11.922 11.1706 11.6052 10.5538C11.2236 9.80981 10.8732 9.59381 10.4148 9.59381H9.36357C9.04531 9.59381 8.74009 9.46738 8.51505 9.24233C8.29 9.01729 8.16357 8.71207 8.16357 8.39381L8.16597 8.39141ZM17.4012 21.289L18.9684 27.0394C19.1073 27.547 19.4093 27.9949 19.8278 28.3141C20.2463 28.6333 20.7581 28.8061 21.2844 28.8058H33.4764C33.9982 28.8053 34.5057 28.6347 34.9219 28.3198C35.3381 28.005 35.6403 27.563 35.7828 27.061L39.3732 14.401H15.3732L17.4012 21.289ZM24.9732 37.1986C24.9732 38.1534 24.5939 39.0691 23.9188 39.7442C23.2436 40.4193 22.328 40.7986 21.3732 40.7986C20.4184 40.7986 19.5027 40.4193 18.8276 39.7442C18.1525 39.0691 17.7732 38.1534 17.7732 37.1986C17.7732 36.2438 18.1525 35.3282 18.8276 34.653C19.5027 33.9779 20.4184 33.5986 21.3732 33.5986C22.328 33.5986 23.2436 33.9779 23.9188 34.653C24.5939 35.3282 24.9732 36.2438 24.9732 37.1986ZM22.5732 37.1986C22.5732 36.8803 22.4467 36.5751 22.2217 36.3501C21.9967 36.125 21.6914 35.9986 21.3732 35.9986C21.0549 35.9986 20.7497 36.125 20.5246 36.3501C20.2996 36.5751 20.1732 36.8803 20.1732 37.1986C20.1732 37.5169 20.2996 37.8221 20.5246 38.0471C20.7497 38.2722 21.0549 38.3986 21.3732 38.3986C21.6914 38.3986 21.9967 38.2722 22.2217 38.0471C22.4467 37.8221 22.5732 37.5169 22.5732 37.1986ZM36.9732 37.1986C36.9732 38.1534 36.5939 39.0691 35.9188 39.7442C35.2436 40.4193 34.328 40.7986 33.3732 40.7986C32.4184 40.7986 31.5027 40.4193 30.8276 39.7442C30.1525 39.0691 29.7732 38.1534 29.7732 37.1986C29.7732 36.2438 30.1525 35.3282 30.8276 34.653C31.5027 33.9779 32.4184 33.5986 33.3732 33.5986C34.328 33.5986 35.2436 33.9779 35.9188 34.653C36.5939 35.3282 36.9732 36.2438 36.9732 37.1986ZM34.5732 37.1986C34.5732 36.8803 34.4467 36.5751 34.2217 36.3501C33.9967 36.125 33.6914 35.9986 33.3732 35.9986C33.0549 35.9986 32.7497 36.125 32.5246 36.3501C32.2996 36.5751 32.1732 36.8803 32.1732 37.1986C32.1732 37.5169 32.2996 37.8221 32.5246 38.0471C32.7497 38.2722 33.0549 38.3986 33.3732 38.3986C33.6914 38.3986 33.9967 38.2722 34.2217 38.0471C34.4467 37.8221 34.5732 37.5169 34.5732 37.1986Z" fill="#7D7B7B"/>
</svg>
