<svg width="56" height="48" viewBox="0 0 56 48" fill="none" xmlns="http://www.w3.org/2000/svg">
<path d="M47.6776 29.9494L47.0137 29.9115L47.9589 12.875L48.6196 12.9129L47.6776 29.9494Z" fill="#BDC7D6"/>
<path d="M43.6648 30.3912L43.6016 12.5422L44.2654 12.5391L44.3287 30.3912H43.6648Z" fill="#BDC7D6"/>
<path d="M40.321 30.8509L39.2461 12.1895L39.91 12.1484L40.9817 30.813L40.321 30.8509Z" fill="#BDC7D6"/>
<path d="M36.9727 31.32L34.8926 11.843L35.5501 11.7734L37.6335 31.2505L36.9727 31.32Z" fill="#BDC7D6"/>
<path d="M33.627 31.7774L30.5352 11.4879L31.1927 11.3867L34.2845 31.6762L33.627 31.7774Z" fill="#BDC7D6"/>
<path d="M30.2839 32.2433L26.1836 11.1382L26.8348 11.0117L30.9351 32.1168L30.2839 32.2433Z" fill="#BDC7D6"/>
<path d="M26.9388 32.706L21.8301 10.7885L22.475 10.6367L27.5869 32.5543L26.9388 32.706Z" fill="#BDC7D6"/>
<path d="M23.5938 33.1656L17.4766 10.4356L18.1183 10.2617L24.2355 32.9949L23.5938 33.1656Z" fill="#BDC7D6"/>
<path d="M51.9069 16.6774L15.5293 15.2264L15.5577 14.5625L51.9353 16.0136L51.9069 16.6774Z" fill="#BDC7D6"/>
<path d="M51.3528 19.1013L16.5527 18.8358L16.5591 18.1719L51.3591 18.4406L51.3528 19.1013Z" fill="#BDC7D6"/>
<path d="M17.5815 22.4361L17.5625 21.7754L50.7819 20.8555L50.8008 21.5194L17.5815 22.4361Z" fill="#BDC7D6"/>
<path d="M18.6087 26.0435L18.5645 25.3796L50.2032 23.2773L50.2474 23.9381L18.6087 26.0435Z" fill="#BDC7D6"/>
<path d="M19.6352 29.6516L19.5625 28.9941L49.6237 25.7031L49.6964 26.3638L19.6352 29.6516Z" fill="#BDC7D6"/>
<path d="M29.0375 44.1852C29.0375 42.0829 27.3336 40.3789 25.2313 40.3789C23.1258 40.3789 21.4219 42.0829 21.4219 44.1852C21.4219 46.2906 23.1258 47.9946 25.2313 47.9946C27.3336 47.9946 29.0375 46.2906 29.0375 44.1852Z" fill="#304754"/>
<path d="M27.2228 44.1831C27.2228 43.0829 26.3313 42.1914 25.2311 42.1914C24.1278 42.1914 23.2363 43.0829 23.2363 44.1831C23.2363 45.2832 24.1278 46.1779 25.2311 46.1779C26.3313 46.1779 27.2228 45.2832 27.2228 44.1831Z" fill="#BDC7D6"/>
<path d="M48.5681 44.1852C48.5681 42.0829 46.8609 40.3789 44.7586 40.3789C42.6532 40.3789 40.9492 42.0829 40.9492 44.1852C40.9492 46.2906 42.6532 47.9946 44.7586 47.9946C46.8609 47.9946 48.5681 46.2906 48.5681 44.1852Z" fill="#304754"/>
<path d="M46.7509 44.1831C46.7509 43.0829 45.8594 42.1914 44.7592 42.1914C43.6591 42.1914 42.7676 43.0829 42.7676 44.1831C42.7676 45.2832 43.6591 46.1779 44.7592 46.1779C45.8594 46.1779 46.7509 45.2832 46.7509 44.1831Z" fill="#BDC7D6"/>
<path d="M29.0719 40.0448L28.446 41.0375L26.4038 44.2905C26.2172 44.5908 25.8948 44.7584 25.5597 44.7584C25.4206 44.7584 25.2783 44.7299 25.1424 44.6635C24.7441 44.4802 24.5133 44.0534 24.5797 43.6171L24.9685 41.0375L25.095 40.1713C25.174 39.656 25.6166 39.2734 26.1382 39.2734H28.6452C29.0403 39.2734 29.2806 39.7097 29.0719 40.0448Z" fill="#02BBA2"/>
<path d="M48.488 40.0448L47.8652 41.0375L45.8198 44.2905C45.6333 44.5908 45.3108 44.7584 44.9757 44.7584C44.8366 44.7584 44.6943 44.7299 44.5584 44.6635C44.1601 44.4802 43.9293 44.0534 43.9957 43.6171L44.3845 41.0375L44.511 40.1713C44.59 39.656 45.0326 39.2734 45.5542 39.2734H48.0612C48.4563 39.2734 48.6998 39.7097 48.488 40.0448Z" fill="#02BBA2"/>
<path d="M29.0722 40.0448L28.4462 41.0375H24.9688L25.0952 40.1713C25.1742 39.656 25.6168 39.2734 26.1384 39.2734H28.6454C29.0406 39.2734 29.2808 39.7097 29.0722 40.0448Z" fill="#02BBA2"/>
<path d="M48.4882 40.0448L47.8654 41.0375H44.3848L44.5112 40.1713C44.5903 39.656 45.0328 39.2734 45.5545 39.2734H48.0614C48.4566 39.2734 48.7 39.7097 48.4882 40.0448Z" fill="#02BBA2"/>
<path d="M49.5893 40.3375H16.4869C15.0327 40.3375 13.7555 39.3575 13.3793 37.9539C13.1486 37.0877 13.2877 36.1614 13.765 35.4027C14.2392 34.6471 15.0169 34.1192 15.8958 33.9548L19.5882 33.2656L11.7734 5.48057L8.34649 3.21388H1.71083C1.11334 3.21388 0.632812 2.7302 0.632812 2.1327C0.632812 1.53837 1.11334 1.05469 1.71083 1.05469H8.6721C8.88391 1.05469 9.0894 1.11791 9.26644 1.23488L13.3003 3.89989C13.5153 4.04216 13.6733 4.26029 13.7429 4.51003L21.9845 33.8188C22.0667 34.1097 22.0224 34.4227 21.8612 34.6787C21.7032 34.938 21.4408 35.115 21.1436 35.1719L16.2909 36.076C15.9969 36.1329 15.7503 36.3005 15.5891 36.5534C15.4311 36.8063 15.3868 37.1035 15.4627 37.3943C15.586 37.8559 16.0064 38.1783 16.4869 38.1783H49.5893C50.1868 38.1783 50.6705 38.662 50.6705 39.2595C50.6705 39.8538 50.1868 40.3375 49.5893 40.3375Z" fill="#A0B0C1"/>
<path d="M54.2903 14.4941C54.2608 14.4941 54.2302 14.492 54.1986 14.4877L14.0875 11.1146C13.4932 11.064 13.0537 10.5424 13.1012 9.95121C13.1517 9.35688 13.6734 8.91429 14.2677 8.96488L54.3788 12.338C54.9731 12.3886 55.4157 12.9102 55.3651 13.5046C55.3177 14.0673 54.8467 14.4941 54.2903 14.4941Z" fill="#A0B0C1"/>
<path d="M20.9443 35.1792C20.4259 35.1792 19.9706 34.8061 19.8821 34.2813C19.7841 33.6933 20.1793 33.1369 20.7673 33.0389L48.6693 28.3507L51.5398 13.0624C51.6504 12.4776 52.2131 12.0919 52.798 12.2025C53.386 12.3132 53.7717 12.8759 53.661 13.4607L50.6514 29.4887C50.5661 29.9345 50.2152 30.2791 49.7694 30.355L21.1245 35.1665C21.0634 35.1749 21.0033 35.1792 20.9443 35.1792Z" fill="#A0B0C1"/>
<path d="M7.80902 0H7.20521C6.97443 0 6.78475 0.18968 6.78475 0.420458V0.578525H2.05538C1.1955 0.578525 0.5 1.27402 0.5 2.13391C0.5 2.99695 1.1955 3.69245 2.05538 3.69245H6.78475V3.85051C6.78475 4.08129 6.97443 4.26781 7.20521 4.26781H7.80902C8.0398 4.26781 8.22632 4.08129 8.22632 3.85051V0.420458C8.22632 0.18968 8.0398 0 7.80902 0Z" fill="#02BBA2"/>
<path d="M53.8055 13.0371L15.5501 9.76827C15.4204 9.75562 15.3224 9.64182 15.3351 9.50904C15.3446 9.37943 15.4615 9.28142 15.5912 9.29407L53.8465 12.5629C53.9762 12.5724 54.0742 12.6862 54.0615 12.819C54.052 12.9486 53.9382 13.0466 53.8055 13.0371Z" fill="#BDC7D6"/>
<path d="M48.8409 29.2325L17.3129 34.6416C17.1991 34.6605 17.0947 34.6099 17.0821 34.5246C17.0663 34.4392 17.1453 34.3539 17.2591 34.3349L48.7872 28.9258C48.8978 28.9069 49.0022 28.9575 49.018 29.0428C49.0306 29.1282 48.9516 29.2135 48.8409 29.2325Z" fill="#BDC7D6"/>
<path d="M6.78566 3.68423H6.23242V0.570312H6.78566V3.68423Z" fill="#02BBA2"/>
</svg>
