<svg width="37" height="36" viewBox="0 0 37 36" fill="none" xmlns="http://www.w3.org/2000/svg">
<path d="M26.908 13.966C26.7692 13.827 26.6044 13.7166 26.4229 13.6414C26.2415 13.5661 26.0469 13.5273 25.8505 13.5273C25.654 13.5273 25.4595 13.5661 25.2781 13.6414C25.0966 13.7166 24.9318 13.827 24.793 13.966L18.973 19.786L13.153 13.966C12.8725 13.6855 12.4921 13.528 12.0955 13.528C11.6989 13.528 11.3185 13.6855 11.038 13.966C10.7575 14.2465 10.6 14.6269 10.6 15.0235C10.6 15.4201 10.7575 15.8005 11.038 16.081L17.923 22.966C18.0618 23.1051 18.2266 23.2154 18.4081 23.2907C18.5895 23.3659 18.784 23.4047 18.9805 23.4047C19.1769 23.4047 19.3715 23.3659 19.5529 23.2907C19.7344 23.2154 19.8992 23.1051 20.038 22.966L26.923 16.081C27.493 15.511 27.493 14.551 26.908 13.966Z" fill="#2B3B47"/>
</svg>
