<svg width="37" height="36" viewBox="0 0 37 36" fill="none" xmlns="http://www.w3.org/2000/svg">
<path d="M17.7056 5.75822C17.9165 5.54754 18.2025 5.42921 18.5006 5.42921C18.7987 5.42921 19.0847 5.54754 19.2956 5.75822L32.3306 18.7932C32.4336 18.9037 32.5578 18.9924 32.6958 19.0539C32.8338 19.1154 32.9828 19.1484 33.1338 19.1511C33.2849 19.1538 33.4349 19.126 33.575 19.0694C33.7151 19.0128 33.8423 18.9286 33.9492 18.8218C34.056 18.7149 34.1402 18.5877 34.1968 18.4476C34.2534 18.3075 34.2812 18.1575 34.2785 18.0064C34.2758 17.8554 34.2428 17.7064 34.1813 17.5684C34.1198 17.4304 34.0311 17.3062 33.9206 17.2032L20.8871 4.16822C20.5737 3.85481 20.2017 3.60621 19.7922 3.4366C19.3827 3.26699 18.9438 3.17969 18.5006 3.17969C18.0574 3.17969 17.6185 3.26699 17.209 3.4366C16.7996 3.60621 16.4275 3.85481 16.1141 4.16822L3.07911 17.2032C2.87428 17.4155 2.76102 17.6997 2.76372 17.9947C2.76642 18.2897 2.88487 18.5718 3.09355 18.7803C3.30224 18.9887 3.58446 19.1069 3.87943 19.1094C4.1744 19.1118 4.45853 18.9982 4.67061 18.7932L17.7056 5.75822Z" fill="#2B3B47"/>
<path d="M18.5 8.14753L30.7385 20.386C30.7835 20.431 30.8285 20.473 30.875 20.515V29.812C30.875 31.3645 29.615 32.6245 28.0625 32.6245H23C22.7016 32.6245 22.4155 32.506 22.2045 32.295C21.9935 32.084 21.875 31.7979 21.875 31.4995V24.7495C21.875 24.4512 21.7565 24.165 21.5455 23.954C21.3345 23.7431 21.0484 23.6245 20.75 23.6245H16.25C15.9516 23.6245 15.6655 23.7431 15.4545 23.954C15.2435 24.165 15.125 24.4512 15.125 24.7495V31.4995C15.125 31.7979 15.0065 32.084 14.7955 32.295C14.5845 32.506 14.2984 32.6245 14 32.6245H8.9375C8.19158 32.6245 7.47621 32.3282 6.94876 31.8008C6.42132 31.2733 6.125 30.558 6.125 29.812V20.515C6.17167 20.4733 6.21718 20.4303 6.2615 20.386L18.5 8.14453V8.14753Z" fill="#2B3B47"/>
</svg>
