<svg width="47" height="45" viewBox="0 0 47 45" fill="none" xmlns="http://www.w3.org/2000/svg">
<path d="M37.0838 24.752L26.8056 34.8066C25.5837 36.002 23.6431 36.002 22.4931 34.8066C21.2712 33.6113 21.2713 31.7129 22.4931 30.5879L30.6869 22.502L22.4213 14.416C21.1994 13.2207 21.1994 11.3223 22.4213 10.1973C23.6431 9.00195 25.5838 9.00195 26.7338 10.1973L37.0838 20.252C37.7306 20.8848 38.0181 21.6582 37.9463 22.502C38.0181 23.2754 37.7306 24.1191 37.0838 24.752Z" fill="#24D172"/>
<path d="M27.2375 9.77344L37.5156 19.8984C38.2344 20.6016 38.5938 21.5156 38.5938 22.5C38.5938 23.4844 38.2344 24.4687 37.5156 25.1719L27.2375 35.2266C25.8 36.6328 23.5 36.6328 22.0625 35.2266C21.3437 34.5234 20.9844 33.6797 20.9844 32.6953C20.9844 31.7109 21.3437 30.8672 22.0625 30.1641L29.825 22.5L22.0625 14.8359C20.625 13.4297 20.625 11.1797 22.0625 9.77344C22.7813 9.07031 23.6438 8.71875 24.65 8.71875C25.5844 8.71875 26.5188 9.14063 27.2375 9.77344ZM26.375 34.3828L36.6531 24.3281C37.1563 23.8359 37.3719 23.2031 37.3719 22.5C37.3719 21.7969 37.1563 21.1641 36.6531 20.7422L26.375 10.6172C25.4406 9.70312 23.7875 9.70312 22.8531 10.6172C21.9187 11.5312 21.9187 13.0781 22.8531 14.0625L31.1188 22.0781C31.3344 22.2891 31.3344 22.6406 31.1188 22.9219L22.8531 30.9375C22.4219 31.3594 22.1344 31.9922 22.1344 32.625C22.1344 33.2578 22.4219 33.8906 22.8531 34.3125C23.3562 34.8047 24.0031 35.0156 24.5781 35.0156C25.225 35.0859 25.8719 34.875 26.375 34.3828Z" fill="#1AA053"/>
<path d="M24.5779 24.748L14.2998 34.8027C13.0779 35.998 11.1373 35.998 9.98726 34.8027C8.83726 33.6074 8.76539 31.709 9.98726 30.584L18.181 22.498L9.91539 14.4121C8.69351 13.2168 8.69351 11.3184 9.91539 10.1934C11.1373 8.99805 13.0779 8.99805 14.2279 10.1934L24.5779 20.248C25.2248 20.8809 25.5123 21.6543 25.4404 22.498C25.4404 23.2715 25.1529 24.1152 24.5779 24.748Z" fill="#71FFAA"/>
<path d="M14.6594 9.77344L24.9375 19.8984C25.6563 20.6016 26.0156 21.5156 26.0156 22.5C26.0156 23.4844 25.6563 24.4687 24.9375 25.1719L14.6594 35.2266C13.2219 36.6328 10.9219 36.6328 9.48437 35.2266C8.76562 34.5234 8.40625 33.6797 8.40625 32.6953C8.40625 31.7109 8.76562 30.8672 9.48437 30.1641L17.3188 22.5L9.48437 14.8359C8.04688 13.4297 8.04688 11.1797 9.48438 9.77344C10.2031 9.07031 11.0656 8.71875 12.0719 8.71875C13.0781 8.71875 14.0125 9.14063 14.6594 9.77344ZM13.7969 34.3828L24.1469 24.3281C24.65 23.8359 24.8656 23.2031 24.8656 22.5C24.8656 21.7969 24.65 21.1641 24.1469 20.7422L13.8687 10.6875C12.9344 9.77343 11.2813 9.77343 10.3469 10.6875C9.4125 11.6016 9.4125 13.1484 10.3469 14.1328L18.5406 22.0781C18.7562 22.2891 18.7562 22.6406 18.5406 22.9219L10.3469 30.9375C9.91563 31.3594 9.62812 31.9922 9.62812 32.625C9.62812 33.2578 9.91562 33.8906 10.3469 34.3125C10.85 34.8047 11.4969 35.0156 12.0719 35.0156C12.7187 35.0859 13.3656 34.875 13.7969 34.3828Z" fill="#1AA053"/>
</svg>
