<svg width="19" height="18" viewBox="0 0 19 18" fill="none" xmlns="http://www.w3.org/2000/svg">
<path d="M9.50188 5.8125C8.90515 5.8125 8.33285 6.04955 7.91089 6.47151C7.48894 6.89347 7.25188 7.46576 7.25188 8.0625C7.25188 8.65924 7.48894 9.23153 7.91089 9.65349C8.33285 10.0754 8.90515 10.3125 9.50188 10.3125C10.0986 10.3125 10.6709 10.0754 11.0929 9.65349C11.5148 9.23153 11.7519 8.65924 11.7519 8.0625C11.7519 7.46576 11.5148 6.89347 11.0929 6.47151C10.6709 6.04955 10.0986 5.8125 9.50188 5.8125ZM8.18938 8.0625C8.18938 7.7144 8.32767 7.38056 8.57381 7.13442C8.81995 6.88828 9.15379 6.75 9.50188 6.75C9.84998 6.75 10.1838 6.88828 10.43 7.13442C10.6761 7.38056 10.8144 7.7144 10.8144 8.0625C10.8144 8.4106 10.6761 8.74444 10.43 8.99058C10.1838 9.23672 9.84998 9.375 9.50188 9.375C9.15379 9.375 8.81995 9.23672 8.57381 8.99058C8.32767 8.74444 8.18938 8.4106 8.18938 8.0625ZM14.375 12L10.592 16.0162C10.4518 16.1652 10.2826 16.2838 10.0948 16.3649C9.90697 16.446 9.70457 16.4879 9.50001 16.4879C9.29545 16.4879 9.09305 16.446 8.90526 16.3649C8.71747 16.2838 8.54825 16.1652 8.40801 16.0162L4.62501 12H4.63926L4.63288 11.9925L4.62501 11.9831C3.65402 10.8348 3.12243 9.37885 3.12501 7.875C3.12501 4.35413 5.97913 1.5 9.50001 1.5C13.0209 1.5 15.875 4.35413 15.875 7.875C15.8776 9.37885 15.346 10.8348 14.375 11.9831L14.3671 11.9925L14.3608 12H14.375ZM13.6464 11.3929C14.4819 10.4114 14.9398 9.16396 14.9375 7.875C14.9375 4.872 12.503 2.4375 9.50001 2.4375C6.49701 2.4375 4.06251 4.872 4.06251 7.875C4.06016 9.16397 4.51801 10.4115 5.35363 11.3929L5.46913 11.529L9.09051 15.3731C9.1431 15.429 9.20656 15.4735 9.27698 15.5039C9.3474 15.5343 9.4233 15.55 9.50001 15.55C9.57672 15.55 9.65262 15.5343 9.72304 15.5039C9.79346 15.4735 9.85692 15.429 9.90951 15.3731L13.5309 11.529L13.6464 11.3929Z" fill="#7D7B7B"/>
</svg>
