<svg width="19" height="18" viewBox="0 0 19 18" fill="none" xmlns="http://www.w3.org/2000/svg">
<path d="M15.0763 3.04688H3.92383C3.42655 3.04688 2.94963 3.24442 2.598 3.59605C2.24637 3.94768 2.04883 4.42459 2.04883 4.92188V13.0744C2.04883 13.5717 2.24637 14.0486 2.598 14.4002C2.94963 14.7518 3.42655 14.9494 3.92383 14.9494H15.0763C15.5736 14.9494 16.0505 14.7518 16.4022 14.4002C16.7538 14.0486 16.9513 13.5717 16.9513 13.0744V4.92188C16.9513 4.42459 16.7538 3.94768 16.4022 3.59605C16.0505 3.24442 15.5736 3.04688 15.0763 3.04688ZM3.92383 3.79688H15.0763C15.3602 3.79606 15.6338 3.90338 15.8413 4.09703C16.0489 4.29068 16.175 4.55612 16.1938 4.83937C14.3413 5.82938 12.4813 6.81187 10.6213 7.80187C10.3697 7.95957 10.1035 8.09268 9.82633 8.19938C9.60876 8.24231 9.38454 8.23844 9.16858 8.188C8.95262 8.13757 8.74988 8.04174 8.57383 7.90688C7.50883 7.34438 6.44383 6.77437 5.38633 6.21187C4.53133 5.76187 3.66133 5.30438 2.80633 4.84688C2.82372 4.56241 2.94907 4.29532 3.15677 4.10017C3.36446 3.90502 3.63883 3.79653 3.92383 3.79688ZM16.2013 13.0744C16.2013 13.3727 16.0828 13.6589 15.8718 13.8699C15.6608 14.0808 15.3747 14.1994 15.0763 14.1994H3.92383C3.62546 14.1994 3.33931 14.0808 3.12833 13.8699C2.91735 13.6589 2.79883 13.3727 2.79883 13.0744V5.69812C4.56883 6.62812 6.33133 7.57313 8.10133 8.51063C8.41756 8.70451 8.758 8.85581 9.11383 8.96062C9.63461 9.0453 10.1684 8.93588 10.6138 8.65312C11.7013 8.08313 12.7813 7.50562 13.8688 6.93563C14.6488 6.51562 15.4213 6.11062 16.2013 5.69812V13.0744Z" fill="#7D7B7B"/>
</svg>
