<svg width="121" height="121" viewBox="0 0 121 121" fill="none" xmlns="http://www.w3.org/2000/svg">
<path d="M84.625 43.625H88.375V51.125H84.625V43.625Z" fill="#4FC070"/>
<path d="M24.625 17.375C24.628 14.8895 25.6167 12.5067 27.3742 10.7492C29.1317 8.99165 31.5145 8.00298 34 8H75.25C77.7355 8.00298 80.1183 8.99165 81.8758 10.7492C83.6333 12.5067 84.622 14.8895 84.625 17.375V32.375H88.375V17.375C88.371 13.8953 86.9869 10.5592 84.5264 8.09861C82.0658 5.63805 78.7297 4.25397 75.25 4.25H34C30.5203 4.25397 27.1842 5.63805 24.7236 8.09861C22.2631 10.5592 20.879 13.8953 20.875 17.375V28.625H24.625V17.375Z" fill="#4FC070"/>
<path d="M39.625 11.75H43.375V15.5H39.625V11.75Z" fill="#4FC070"/>
<path d="M47.125 11.75H62.125V15.5H47.125V11.75Z" fill="#4FC070"/>
<path d="M7.77437 72.8511C6.52615 75.5639 5.87827 78.5142 5.875 81.5005V116.75H9.625V81.5005C9.62901 79.0593 10.1592 76.6476 11.1794 74.4298L16.375 63.1611L12.97 61.5898L7.77437 72.8511Z" fill="#4FC070"/>
<path d="M107.124 86.75C105.359 86.7429 103.65 87.3681 102.305 88.5125C101.637 87.4041 100.694 86.487 99.5672 85.8498C98.4406 85.2125 97.1686 84.8768 95.8742 84.875C94.109 84.8679 92.3996 85.4931 91.0555 86.6375C90.3986 85.5494 89.476 84.6462 88.3742 84.0125V62.375H84.6242V83C83.3069 83.0014 82.0132 83.3506 80.8742 84.0125V71.75C80.8742 69.7609 80.084 67.8532 78.6775 66.4467C77.271 65.0402 75.3633 64.25 73.3742 64.25C71.3851 64.25 69.4774 65.0402 68.0709 66.4467C66.6644 67.8532 65.8742 69.7609 65.8742 71.75V96.6313L65.6305 96.2C64.781 94.7291 63.4497 93.5966 61.8617 92.9938C62.5255 92.4749 63.0627 91.812 63.433 91.0552C63.8033 90.2985 63.9969 89.4675 63.9992 88.625C63.9948 87.1345 63.4007 85.7064 62.3468 84.6524C61.2929 83.5985 59.8647 83.0045 58.3742 83H50.8742C49.3824 83 47.9516 83.5926 46.8967 84.6475C45.8419 85.7024 45.2492 87.1332 45.2492 88.625C45.2492 90.1168 45.8419 91.5476 46.8967 92.6025C47.9516 93.6574 49.3824 94.25 50.8742 94.25H54.268C53.1103 95.2279 52.2794 96.5364 51.8867 98H38.443L36.1742 94.2313L44.068 80.5812C44.5617 79.7272 44.8821 78.7841 45.0107 77.806C45.1394 76.8279 45.0739 75.834 44.8178 74.8813C44.5618 73.9285 44.1203 73.0357 43.5187 72.2538C42.917 71.472 42.1671 70.8165 41.3117 70.325C39.5884 69.3338 37.5421 69.0673 35.6225 69.5842C33.7028 70.101 32.0669 71.3588 31.0742 73.0812L24.6242 84.2375V66.125H20.8742V88.625C20.8761 89.2467 20.9262 89.8673 21.0242 90.4813L19.8242 92.5625L23.068 94.4375L34.318 74.9562C34.5617 74.5278 34.8876 74.1515 35.2769 73.8491C35.6662 73.5467 36.1113 73.324 36.5867 73.1938C37.5496 72.9474 38.5703 73.0817 39.4367 73.5688C40.2969 74.071 40.9235 74.893 41.1799 75.8554C41.4363 76.8179 41.3017 77.8427 40.8055 78.7062L32.368 93.3125C32.205 93.6055 32.121 93.9359 32.1243 94.2712C32.1275 94.6065 32.218 94.9352 32.3867 95.225L36.418 101.9C37.2834 103.359 37.743 105.023 37.7492 106.719V116.731H41.4992V106.719C41.4902 105.014 41.1528 103.327 40.5055 101.75H51.8867C52.0508 102.43 52.303 103.085 52.6367 103.7L60.718 117.688L63.9617 115.812L55.8805 101.825C55.6091 101.398 55.427 100.921 55.3449 100.422C55.2628 99.9228 55.2825 99.4123 55.4028 98.9211C55.5232 98.4298 55.7416 97.968 56.045 97.5634C56.3485 97.1587 56.7306 96.8197 57.1685 96.5666C57.6064 96.3135 58.0909 96.1516 58.593 96.0906C59.095 96.0296 59.6043 96.0708 60.09 96.2117C60.5757 96.3526 61.0279 96.5903 61.4194 96.9106C61.8109 97.2308 62.1335 97.6269 62.368 98.075L66.118 104.562C66.3287 104.918 66.649 105.196 67.0309 105.355C67.4127 105.514 67.8358 105.545 68.2367 105.444C68.6363 105.336 68.989 105.099 69.24 104.77C69.4909 104.442 69.626 104.039 69.6242 103.625V71.75C69.6242 70.7554 70.0193 69.8016 70.7226 69.0983C71.4258 68.3951 72.3797 68 73.3742 68C74.3688 68 75.3226 68.3951 76.0259 69.0983C76.7291 69.8016 77.1242 70.7554 77.1242 71.75V98C77.1242 98.4973 77.3218 98.9742 77.6734 99.3258C78.025 99.6775 78.5019 99.875 78.9992 99.875C79.4965 99.875 79.9734 99.6775 80.325 99.3258C80.6767 98.9742 80.8742 98.4973 80.8742 98V90.5C80.8742 89.5054 81.2693 88.5516 81.9726 87.8483C82.6758 87.1451 83.6297 86.75 84.6242 86.75C85.6188 86.75 86.5726 87.1451 87.2759 87.8483C87.9791 88.5516 88.3742 89.5054 88.3742 90.5V98C88.3742 98.4973 88.5718 98.9742 88.9234 99.3258C89.275 99.6775 89.7519 99.875 90.2492 99.875C90.7465 99.875 91.2234 99.6775 91.5751 99.3258C91.9267 98.9742 92.1242 98.4973 92.1242 98V92.375C92.1242 91.3804 92.5193 90.4266 93.2226 89.7233C93.9258 89.0201 94.8797 88.625 95.8742 88.625C96.8688 88.625 97.8226 89.0201 98.5259 89.7233C99.2291 90.4266 99.6242 91.3804 99.6242 92.375V98C99.6242 98.4973 99.8218 98.9742 100.173 99.3258C100.525 99.6775 101.002 99.875 101.499 99.875C101.997 99.875 102.473 99.6775 102.825 99.3258C103.177 98.9742 103.374 98.4973 103.374 98V94.25C103.374 93.2554 103.769 92.3016 104.473 91.5983C105.176 90.8951 106.13 90.5 107.124 90.5C108.119 90.5 109.073 90.8951 109.776 91.5983C110.479 92.3016 110.874 93.2554 110.874 94.25V116.75H114.624V94.25C114.624 92.2609 113.834 90.3532 112.428 88.9467C111.021 87.5402 109.113 86.75 107.124 86.75ZM58.3742 90.5H50.8742C50.3769 90.5 49.9 90.3025 49.5484 89.9508C49.1968 89.5992 48.9992 89.1223 48.9992 88.625C48.9992 88.1277 49.1968 87.6508 49.5484 87.2992C49.9 86.9475 50.3769 86.75 50.8742 86.75H58.3742C58.8715 86.75 59.3484 86.9475 59.7 87.2992C60.0517 87.6508 60.2492 88.1277 60.2492 88.625C60.2492 89.1223 60.0517 89.5992 59.7 89.9508C59.3484 90.3025 58.8715 90.5 58.3742 90.5Z" fill="#4FC070"/>
<path d="M56.5 53H52.75C52.2527 53 51.7758 52.8025 51.4242 52.4508C51.0725 52.0992 50.875 51.6223 50.875 51.125H47.125C47.125 52.6168 47.7176 54.0476 48.7725 55.1025C49.8274 56.1574 51.2582 56.75 52.75 56.75V58.625H56.5V56.75C57.9918 56.75 59.4226 56.1574 60.4775 55.1025C61.5324 54.0476 62.125 52.6168 62.125 51.125C62.125 49.6332 61.5324 48.2024 60.4775 47.1475C59.4226 46.0926 57.9918 45.5 56.5 45.5H52.75C52.2527 45.5 51.7758 45.3025 51.4242 44.9508C51.0725 44.5992 50.875 44.1223 50.875 43.625C50.875 43.1277 51.0725 42.6508 51.4242 42.2992C51.7758 41.9475 52.2527 41.75 52.75 41.75H56.5C56.9973 41.75 57.4742 41.9475 57.8258 42.2992C58.1775 42.6508 58.375 43.1277 58.375 43.625H62.125C62.125 42.1332 61.5324 40.7024 60.4775 39.6475C59.4226 38.5926 57.9918 38 56.5 38V36.125H52.75V38C51.2582 38 49.8274 38.5926 48.7725 39.6475C47.7176 40.7024 47.125 42.1332 47.125 43.625C47.125 45.1168 47.7176 46.5476 48.7725 47.6025C49.8274 48.6574 51.2582 49.25 52.75 49.25H56.5C56.9973 49.25 57.4742 49.4475 57.8258 49.7992C58.1775 50.1508 58.375 50.6277 58.375 51.125C58.375 51.6223 58.1775 52.0992 57.8258 52.4508C57.4742 52.8025 56.9973 53 56.5 53Z" fill="#4FC070"/>
<path d="M54.625 66.125C58.3334 66.125 61.9585 65.0253 65.0419 62.9651C68.1254 60.9048 70.5286 57.9764 71.9477 54.5503C73.3669 51.1242 73.7382 47.3542 73.0147 43.7171C72.2913 40.0799 70.5055 36.739 67.8833 34.1168C65.261 31.4945 61.9201 29.7088 58.2829 28.9853C54.6458 28.2618 50.8758 28.6331 47.4497 30.0523C44.0236 31.4714 41.0952 33.8746 39.0349 36.9581C36.9747 40.0415 35.875 43.6666 35.875 47.375C35.8805 52.3461 37.8577 57.1121 41.3728 60.6272C44.8879 64.1424 49.6539 66.1195 54.625 66.125ZM54.625 32.375C57.5917 32.375 60.4918 33.2547 62.9585 34.903C65.4253 36.5512 67.3479 38.8939 68.4832 41.6348C69.6185 44.3756 69.9156 47.3916 69.3368 50.3014C68.758 53.2111 67.3294 55.8838 65.2316 57.9816C63.1338 60.0794 60.4611 61.508 57.5514 62.0868C54.6416 62.6656 51.6256 62.3685 48.8847 61.2332C46.1439 60.0979 43.8012 58.1753 42.153 55.7086C40.5047 53.2418 39.625 50.3417 39.625 47.375C39.6295 43.3981 41.2113 39.5854 44.0233 36.7733C46.8354 33.9613 50.6481 32.3795 54.625 32.375Z" fill="#4FC070"/>
<path d="M23.2994 42.3008L25.9506 44.952L31.5756 39.327C31.9271 38.9754 32.1246 38.4986 32.1246 38.0014C32.1246 37.5042 31.9271 37.0274 31.5756 36.6758L25.9506 31.0508L23.2994 33.702L25.7238 36.1264H13.375V39.8764H25.7238L23.2994 42.3008Z" fill="#4FC070"/>
<path d="M5.875 36.125H9.625V39.875H5.875V36.125Z" fill="#4FC070"/>
<path d="M23.2994 61.0508L25.9506 63.702L31.5756 58.077C31.9271 57.7254 32.1246 57.2486 32.1246 56.7514C32.1246 56.2542 31.9271 55.7774 31.5756 55.4258L25.9506 49.8008L23.2994 52.452L25.7238 54.8764H13.375V58.6264H25.7238L23.2994 61.0508Z" fill="#4FC070"/>
<path d="M5.875 54.875H9.625V58.625H5.875V54.875Z" fill="#4FC070"/>
<path d="M102.049 42.3008L104.701 44.952L110.326 39.327C110.677 38.9754 110.875 38.4986 110.875 38.0014C110.875 37.5042 110.677 37.0274 110.326 36.6758L104.701 31.0508L102.049 33.702L104.474 36.1264H92.125V39.8764H104.474L102.049 42.3008Z" fill="#4FC070"/>
<path d="M84.625 36.125H88.375V39.875H84.625V36.125Z" fill="#4FC070"/>
<path d="M102.049 61.0508L104.701 63.702L110.326 58.077C110.677 57.7254 110.875 57.2486 110.875 56.7514C110.875 56.2542 110.677 55.7774 110.326 55.4258L104.701 49.8008L102.049 52.452L104.474 54.8764H92.125V58.6264H104.474L102.049 61.0508Z" fill="#4FC070"/>
<path d="M84.625 54.875H88.375V58.625H84.625V54.875Z" fill="#4FC070"/>
<path d="M77.125 36.125H80.875V39.875H77.125V36.125Z" fill="#4FC070"/>
<path d="M77.125 54.875H80.875V58.625H77.125V54.875Z" fill="#4FC070"/>
</svg>
