<svg width="19" height="18" viewBox="0 0 19 18" fill="none" xmlns="http://www.w3.org/2000/svg">
<path d="M2.75 10.5V7.5C2.75 4.67175 2.75 3.25725 3.629 2.379C4.50725 1.5 5.92175 1.5 8.75 1.5H10.25C13.0782 1.5 14.4927 1.5 15.371 2.379C15.8615 2.86875 16.0783 3.525 16.1735 4.5M16.25 7.5V10.5C16.25 13.3282 16.25 14.7427 15.371 15.621C14.4927 16.5 13.0782 16.5 10.25 16.5H8.75C5.92175 16.5 4.50725 16.5 3.629 15.621C3.1385 15.1312 2.92175 14.475 2.8265 13.5M6.5 10.5H10.25M6.5 7.5H7.25M12.5 7.5H9.5" stroke="#7D7B7B" stroke-width="1.5" stroke-linecap="round"/>
</svg>
