<svg width="37" height="36" viewBox="0 0 37 36" fill="none" xmlns="http://www.w3.org/2000/svg">
<path d="M14.4641 10.0656C14.325 10.2044 14.2147 10.3692 14.1394 10.5507C14.0641 10.7322 14.0254 10.9267 14.0254 11.1231C14.0254 11.3196 14.0641 11.5141 14.1394 11.6956C14.2147 11.877 14.325 12.0419 14.4641 12.1806L20.2841 18.0006L14.4641 23.8206C14.1836 24.1011 14.026 24.4815 14.026 24.8781C14.026 25.2748 14.1836 25.6552 14.4641 25.9356C14.7445 26.2161 15.1249 26.3737 15.5216 26.3737C15.9182 26.3737 16.2986 26.2161 16.5791 25.9356L23.4641 19.0506C23.6031 18.9119 23.7134 18.747 23.7887 18.5656C23.864 18.3841 23.9027 18.1896 23.9027 17.9931C23.9027 17.7967 23.864 17.6022 23.7887 17.4207C23.7134 17.2392 23.6031 17.0744 23.4641 16.9356L16.5791 10.0506C16.0091 9.48064 15.0491 9.48064 14.4641 10.0656Z" fill="#4FC070"/>
</svg>
