<svg width="19" height="18" viewBox="0 0 19 18" fill="none" xmlns="http://www.w3.org/2000/svg">
<path d="M15.1295 5.97C14.5946 8.05697 13.5086 9.96181 11.9852 11.4852C10.4618 13.0086 8.55697 14.0946 6.47 14.6295C4.86425 15.0383 3.5 13.6575 3.5 12V11.25C3.5 10.836 3.83675 10.5037 4.2485 10.4625C4.93139 10.3952 5.60172 10.2339 6.2405 9.98325L7.3805 11.1233C9.23669 10.2335 10.7335 8.73669 11.6233 6.8805L10.4832 5.7405C10.7342 5.10176 10.8957 4.43143 10.9633 3.7485C11.0038 3.336 11.336 3 11.75 3H12.5C14.1575 3 15.5383 4.36425 15.1295 5.97Z" stroke="#7D7B7B" stroke-linecap="round" stroke-linejoin="round"/>
</svg>
