<svg width="37" height="36" viewBox="0 0 37 36" fill="none" xmlns="http://www.w3.org/2000/svg">
<path d="M10.5656 22.034C10.7044 22.173 10.8692 22.2834 11.0507 22.3586C11.2322 22.4339 11.4267 22.4727 11.6231 22.4727C11.8196 22.4727 12.0141 22.4339 12.1956 22.3586C12.377 22.2834 12.5419 22.173 12.6806 22.034L18.5006 16.214L24.3206 22.034C24.6011 22.3145 24.9815 22.472 25.3781 22.472C25.7748 22.472 26.1552 22.3145 26.4356 22.034C26.7161 21.7535 26.8737 21.3731 26.8737 20.9765C26.8737 20.5799 26.7161 20.1995 26.4356 19.919L19.5506 13.034C19.4119 12.8949 19.247 12.7846 19.0656 12.7093C18.8841 12.6341 18.6896 12.5953 18.4931 12.5953C18.2967 12.5953 18.1022 12.6341 17.9207 12.7093C17.7392 12.7846 17.5744 12.8949 17.4356 13.034L10.5506 19.919C9.98064 20.489 9.98064 21.449 10.5656 22.034Z" fill="#2B3B47"/>
</svg>
